# xmcd
#
# Track frame offsets: 
#        150
#        13507
#        28790
#        43312
#        58195
#        73267
#        87607
#        104087
#        120232
#        134477
#        147792
#        166162
#        181272
#        194765
#        207992
#        228760
#        241352
#        262530
#        281035
#        300485
#
# Disc length: 4243 seconds
#
# Revision: 6
# Processed by: cddbd v1.5.2PL0 Copyright (c) Steve Scherf et al.
# Submitted via: ExactAudioCopy v0.99pb4
#
DISCID=25109114
DTITLE=Duke Ellington - Very Best Of Duke
DYEAR=2001
DGENRE=Jazz
TTITLE0=Take the "A" Train
TTITLE1=Warm Valley
TTITLE2=Cotton Tail
TTITLE3=Jack the Bear
TTITLE4=Concerto for Cootie
TTITLE5=Black and Tan Fantasy
TTITLE6=East Saint Louis Toodle-O
TTITLE7=The Mooche
TTITLE8=Mood Indigo
TTITLE9=Rockin' in Rhythm
TTITLE10=Creole Rhapsody, Part I
TTITLE11=I Got it Bad (and That Ain't Good)
TTITLE12=Don't You Know I Care (or Don't You Care to Know)
TTITLE13=Chelsea Bridge
TTITLE14=Work Song
TTITLE15=Caravan
TTITLE16=Perdido
TTITLE17=Isfahan
TTITLE18=Blood Count
TTITLE19=Come Sunday
EXTD=\nYEAR: 2001  ID3G:  17
EXTT0=
EXTT1=
EXTT2=
EXTT3=
EXTT4=
EXTT5=
EXTT6=
EXTT7=
EXTT8=
EXTT9=
EXTT10=
EXTT11=
EXTT12=
EXTT13=
EXTT14=
EXTT15=
EXTT16=
EXTT17=
EXTT18=
EXTT19=
PLAYORDER=
